<svg xmlns="http://www.w3.org/2000/svg" viewBox="0 0 32 32"><defs><linearGradient id="a" x1="0" x2="1" y1="0" y2="1"><stop offset="0" stop-color="#988dea"/><stop offset="1" stop-color="#5a4ed6"/></linearGradient><linearGradient id="b" x1="0" x2="0" y1="0" y2="1"><stop offset="0" stop-color="#e9e6fb"/><stop offset="1" stop-color="#fff"/></linearGradient></defs><path fill="url(#a)" d="M4.5 30.5v-16a11.5 11.5 0 0 1 23 0v16z"/><path fill="url(#b)" d="M8.5 27V15a7.5 7.5 0 0 1 15 0v12z"/><path fill="#b3aaf0" d="M8.5 22.5 20 11.4a7.5 7.5 0 0 1 2.2 2.4L8.5 27z" opacity=".55"/><path fill="#fff" stroke="#5646c0" stroke-linejoin="round" stroke-width="1.1" d="M25 .8c.99 5.21.99 5.21 6.2 6.2-5.21.99-5.21.99-6.2 6.2-.99-5.21-.99-5.21-6.2-6.2 5.21-.99 5.21-.99 6.2-6.2Z"/></svg>
